<svg width="24" height="24" viewBox="0 0 24 24" fill="yellow" xmlns="http://www.w3.org/2000/svg">
<path fill-rule="evenodd" clip-rule="evenodd" d="M10.2199 1.33325C5.43342 1.33325 1.55322 5.21345 1.55322 9.99992C1.55322 14.7864 5.43342 18.6666 10.2199 18.6666C15.0064 18.6666 18.8866 14.7864 18.8866 9.99992C18.8866 5.21345 15.0064 1.33325 10.2199 1.33325ZM10.2199 2.6999C13.173 2.6972 15.8369 4.47408 16.9689 7.20169C18.1009 9.9293 17.478 13.0703 15.3908 15.1594C13.3035 17.2486 10.1631 17.8744 7.43449 16.7449C4.70585 15.6153 2.92654 12.9531 2.92654 9.9999C2.94476 5.97839 6.19838 2.7218 10.2199 2.6999ZM17.7533 16.5799L22.6666 21.5265C22.8345 21.6957 22.8995 21.9415 22.837 22.1715C22.7745 22.4014 22.594 22.5806 22.3636 22.6415C22.1332 22.7023 21.8878 22.6357 21.7199 22.4665L16.8066 17.5199L17.7533 16.5799Z" fill="#454748"/>
</svg>